<svg width="50" height="50" viewBox="0 0 50 50" fill="none" xmlns="http://www.w3.org/2000/svg">
<g clip-path="url(#clip0_117296_24)">
<path d="M25 4C41 4 45 8.1 45 24.5C45 40.9 41 45 25 45C9 45 5 40.9 5 24.5C5 8.1 9 4 25 4Z" stroke="#FE6E58" stroke-width="1.5" stroke-linecap="round" stroke-linejoin="round"/>
<path d="M34.684 28.986C34.84 28.986 34.96 29.058 35.044 29.202C35.14 29.346 35.188 29.544 35.188 29.796C35.188 30.264 35.074 30.636 34.846 30.912C34.27 31.608 33.688 32.148 33.1 32.532C32.512 32.904 31.816 33.09 31.012 33.09C30.124 33.09 29.398 32.832 28.834 32.316C28.27 31.788 27.742 30.972 27.25 29.868C26.89 29.076 26.59 28.488 26.35 28.104C26.122 27.708 25.894 27.432 25.666 27.276C25.438 27.108 25.15 27.006 24.802 26.97L24.604 28.302C24.352 30.018 23.86 31.254 23.128 32.01C22.408 32.766 21.412 33.144 20.14 33.144C19.312 33.144 18.574 32.946 17.926 32.55C17.29 32.142 16.846 31.626 16.594 31.002C16.51 30.786 16.468 30.552 16.468 30.3C16.468 29.94 16.552 29.628 16.72 29.364C16.888 29.1 17.104 28.968 17.368 28.968C17.524 28.968 17.656 29.01 17.764 29.094C17.872 29.166 17.974 29.298 18.07 29.49C18.442 30.186 18.766 30.672 19.042 30.948C19.33 31.224 19.684 31.362 20.104 31.362C20.584 31.362 20.992 31.146 21.328 30.714C21.676 30.27 21.922 29.592 22.066 28.68L22.318 26.97H22.03C21.754 26.97 21.538 26.892 21.382 26.736C21.226 26.58 21.148 26.364 21.148 26.088C21.148 25.776 21.226 25.53 21.382 25.35C21.55 25.158 21.754 25.062 21.994 25.062H22.588C22.672 24.474 22.732 24.066 22.768 23.838L23.326 19.788C23.014 19.752 22.72 19.734 22.444 19.734C21.424 19.734 20.65 19.914 20.122 20.274C19.594 20.622 19.33 21.126 19.33 21.786C19.33 22.086 19.36 22.332 19.42 22.524C19.492 22.704 19.582 22.908 19.69 23.136C19.738 23.232 19.762 23.34 19.762 23.46C19.762 23.724 19.636 23.958 19.384 24.162C19.144 24.354 18.874 24.45 18.574 24.45C18.19 24.45 17.908 24.282 17.728 23.946C17.368 23.31 17.188 22.626 17.188 21.894C17.188 21.138 17.392 20.448 17.8 19.824C18.22 19.2 18.85 18.702 19.69 18.33C20.53 17.946 21.568 17.754 22.804 17.754C23.344 17.754 23.836 17.784 24.28 17.844C24.736 17.904 25.234 18.018 25.774 18.186C26.362 18.366 26.656 18.702 26.656 19.194C26.656 19.854 26.374 20.184 25.81 20.184L25.108 25.026C26.512 24.882 27.652 24.282 28.528 23.226C29.416 22.158 30.154 20.712 30.742 18.888C30.85 18.552 31.03 18.294 31.282 18.114C31.546 17.934 31.876 17.844 32.272 17.844C32.608 17.844 32.866 17.922 33.046 18.078C33.238 18.222 33.334 18.432 33.334 18.708C33.334 18.792 33.31 18.93 33.262 19.122C32.662 21.102 31.804 22.674 30.688 23.838C29.572 25.002 28.354 25.776 27.034 26.16C27.49 26.268 27.862 26.43 28.15 26.646C28.45 26.862 28.702 27.132 28.906 27.456C29.11 27.768 29.344 28.206 29.608 28.77C29.98 29.562 30.328 30.126 30.652 30.462C30.976 30.786 31.354 30.948 31.786 30.948C32.17 30.948 32.536 30.822 32.884 30.57C33.232 30.306 33.67 29.862 34.198 29.238C34.342 29.07 34.504 28.986 34.684 28.986Z" fill="#FE6E58"/>
</g>
<defs>
<clipPath id="clip0_117296_24">
<rect width="50" height="50" fill="white"/>
</clipPath>
</defs>
</svg>
